<?xml version="1.0" standalone="no"?>
<!DOCTYPE svg PUBLIC "-//W3C//DTD SVG 20010904//EN"
 "http://www.w3.org/TR/2001/REC-SVG-20010904/DTD/svg10.dtd">
<svg version="1.0" xmlns="http://www.w3.org/2000/svg"
 width="400.000000pt" height="400.000000pt" viewBox="0 0 400.000000 400.000000"
 preserveAspectRatio="xMidYMid meet">
<metadata>
Created by potrace 1.14, written by Peter Selinger 2001-2017
</metadata>
<g transform="translate(0.000000,400.000000) scale(0.100000,-0.100000)"
fill="#000000" stroke="none">
<path d="M0 2000 l0 -2000 2000 0 2000 0 0 2000 0 2000 -2000 0 -2000 0 0
-2000z m1461 238 c34 -19 79 -83 79 -111 0 -4 -27 -7 -60 -7 -39 0 -60 4 -60
12 0 28 -33 48 -80 48 -55 0 -73 -15 -68 -57 3 -25 10 -30 63 -46 172 -53 215
-88 215 -176 0 -99 -73 -153 -204 -153 -103 0 -157 27 -192 94 -26 49 -20 58
39 58 47 0 55 -3 67 -24 36 -68 180 -56 180 16 0 29 -39 56 -109 73 -131 32
-188 87 -176 170 10 67 49 108 118 126 51 13 145 2 188 -23z m1539 3 c38 -19
80 -73 80 -102 0 -16 -8 -19 -55 -19 -30 0 -55 5 -55 10 0 6 -9 19 -20 30 -25
25 -101 28 -124 4 -40 -39 -9 -75 85 -99 130 -33 181 -79 181 -165 0 -96 -71
-152 -195 -153 -115 0 -192 45 -212 126 l-7 27 61 0 c46 0 61 -3 61 -14 0 -26
50 -56 94 -56 54 0 86 22 86 60 0 35 -24 54 -95 71 -135 33 -185 76 -185 159
0 74 39 119 125 141 43 12 134 1 175 -20z m-2494 -42 c-3 -34 -6 -149 -6 -255
l0 -194 -55 0 -55 0 0 255 0 255 61 0 62 0 -7 -61z m327 -71 c41 -73 86 -155
101 -183 l26 -50 0 183 0 182 50 0 50 0 0 -255 0 -256 -66 3 -67 3 -39 70
c-22 39 -69 124 -104 190 l-64 120 0 -192 0 -193 -50 0 -50 0 0 255 0 255 69
0 70 0 74 -132z m1167 87 l0 -45 -75 0 -75 0 -2 -207 -3 -208 -52 -3 -53 -3 0
210 0 211 -80 0 -80 0 0 45 0 45 210 0 210 0 0 -45z m180 -165 l0 -210 126 0
c126 0 126 0 120 -22 -3 -13 -6 -33 -6 -46 l0 -22 -177 2 -178 3 -3 240 c-1
132 0 245 2 252 4 8 25 13 61 13 l55 0 0 -210z m1104 110 l-7 -100 107 0 106
0 0 100 0 100 55 0 55 0 0 -255 0 -255 -55 0 -55 0 0 110 0 110 -105 0 -105 0
0 -110 0 -110 -55 0 -55 0 0 255 0 255 60 0 61 0 -7 -100z m-666 -342 l-3 -63
-57 -3 -58 -3 0 66 0 65 60 0 61 0 -3 -62z"/>
</g>
</svg>
